<?xml version="1.0" encoding="UTF-8" standalone="no"?>
<!-- Created with Inkscape (http://www.inkscape.org/) -->

<svg
   width="55mm"
   height="26.774401mm"
   viewBox="0 0 55.000002 26.774402"
   version="1.1"
   id="svg18279"
   inkscape:version="1.1.1 (c3084ef, 2021-09-22)"
   sodipodi:docname="logo.svg"
   inkscape:export-filename="/Users/wazenshbair/SnT/Scratch2Hook/blockly2hooks/logo2.png"
   inkscape:export-xdpi="75.110001"
   inkscape:export-ydpi="75.110001"
   xmlns:inkscape="http://www.inkscape.org/namespaces/inkscape"
   xmlns:sodipodi="http://sodipodi.sourceforge.net/DTD/sodipodi-0.dtd"
   xmlns="http://www.w3.org/2000/svg"
   xmlns:svg="http://www.w3.org/2000/svg">
  <sodipodi:namedview
     id="namedview18281"
     pagecolor="#ffffff"
     bordercolor="#666666"
     borderopacity="1.0"
     inkscape:pageshadow="2"
     inkscape:pageopacity="0.0"
     inkscape:pagecheckerboard="0"
     inkscape:document-units="mm"
     showgrid="true"
     inkscape:zoom="3.6095155"
     inkscape:cx="103.33797"
     inkscape:cy="50.006711"
     inkscape:window-width="1680"
     inkscape:window-height="935"
     inkscape:window-x="0"
     inkscape:window-y="25"
     inkscape:window-maximized="1"
     inkscape:current-layer="layer1"
     fit-margin-top="0"
     fit-margin-left="0"
     fit-margin-right="0"
     fit-margin-bottom="0"
     width="69.9752mm"
     height="25.7744mm">
    <inkscape:grid
       type="xygrid"
       id="grid9382"
       originx="-3.7590934e-07"
       originy="-5.2916707" />
  </sodipodi:namedview>
  <defs
     id="defs18276" />
  <g
     inkscape:label="Layer 1"
     inkscape:groupmode="layer"
     id="layer1"
     transform="translate(-31.663276,-10.833971)">
    <path
       id="path906"
       d="m 33.413737,11.370344 c -0.967039,-7.94e-4 -1.751273,0.783419 -1.75046,1.750454 v 8.273643 c -9.43e-4,0.967031 0.783421,1.751237 1.75046,1.750441 h 0.681473 c 0.336057,1.260419 1.477248,2.137614 2.781674,2.138227 1.303596,-0.0018 2.443582,-0.878633 2.779441,-2.138227 h 0.69809 36.214236 c 0.637046,0 1.153403,-0.516422 1.153403,-1.153444 v -9.467641 l -1.153403,-1.153453 z"
       style="fill:#43cde6;fill-opacity:1;stroke-width:0.14418"
       inkscape:connector-curvature="0"
       sodipodi:nodetypes="ccccccccssccc"
       inkscape:export-filename="/Users/wazenshbair/SnT/Scratch2Hook/path906.png"
       inkscape:export-xdpi="75.110001"
       inkscape:export-ydpi="75.110001" />
    <path
       id="path906-0"
       d="m 33.413737,22.933104 c -0.967039,-7.85e-4 -1.751273,0.783427 -1.75046,1.750452 v 8.273645 c -9.43e-4,0.967037 0.783421,1.751244 1.75046,1.750446 h 0.681473 c 0.336057,1.260413 1.477248,2.137608 2.781674,2.138221 1.303596,-0.0018 2.443582,-0.878625 2.779441,-2.138221 h 0.69809 36.214236 c 0.637046,0 1.153403,-0.516421 1.153403,-1.153449 v -9.467643 l -1.153403,-1.153451 z"
       style="fill:#4285f4;fill-opacity:1;stroke-width:0.14418"
       inkscape:connector-curvature="0"
       sodipodi:nodetypes="ccccccccssccc"
       inkscape:export-filename="/Users/wazenshbair/SnT/Scratch2Hook/path906.png"
       inkscape:export-xdpi="75.110001"
       inkscape:export-ydpi="75.110001" />
    <path
       id="path906-9"
       d="m 84.471554,34.700436 c 0.967021,7.38e-4 1.751222,-0.783418 1.750379,-1.750453 V 13.11359 c 0.0016,-0.967036 -0.783358,-1.751256 -1.750379,-1.750453 14.702575,0.0018 4.402353,0 -8.928817,0 0.04137,2.645829 0.157195,21.097024 0,23.337299 z"
       style="fill:#ffcc00;stroke-width:0.14418"
       inkscape:connector-curvature="0"
       sodipodi:nodetypes="ccccccc"
       inkscape:export-filename="/Users/wazenshbair/SnT/Scratch2Hook/path906.png"
       inkscape:export-xdpi="75.110001"
       inkscape:export-ydpi="75.110001" />
    <text
       xml:space="preserve"
       style="font-size:9.4722px;line-height:1.25;font-family:sans-serif;letter-spacing:0.208953px;word-spacing:0px;stroke-width:0.14418"
       x="34.413246"
       y="32.041443"
       id="text1918-9"
       inkscape:export-filename="/Users/wazenshbair/SnT/Scratch2Hook/path906.png"
       inkscape:export-xdpi="75.110001"
       inkscape:export-ydpi="75.110001"><tspan
         sodipodi:role="line"
         id="tspan1916-4"
         x="34.413246"
         y="32.041443"
         style="font-style:normal;font-variant:normal;font-weight:normal;font-stretch:normal;font-size:9.4722px;font-family:'DIN Alternate';-inkscape-font-specification:'DIN Alternate';fill:#ffffff;stroke-width:0.14418">HOOKS</tspan></text>
    <path
       sodipodi:nodetypes="ccccccc"
       inkscape:connector-curvature="0"
       id="path908"
       d="M 75.543906,14.821552 73.14604,13.466477 c -0.345658,-0.195036 -0.773425,0.05421 -0.77413,0.451129 v 5.856799 c 7.32e-4,0.396877 0.428473,0.646165 0.77413,0.451129 l 2.397866,-1.355351 c 2.955636,-1.553906 1.513891,-4.437532 0,-4.048631 z"
       style="fill:#ffcc00;fill-opacity:1;stroke-width:0.14418"
       inkscape:export-filename="/Users/wazenshbair/SnT/Scratch2Hook/path906.png"
       inkscape:export-xdpi="75.110001"
       inkscape:export-ydpi="75.110001" />
    <text
       xml:space="preserve"
       style="font-size:9.4722px;line-height:1.25;font-family:sans-serif;letter-spacing:0.208953px;word-spacing:0px;stroke-width:0.14418"
       x="33.093723"
       y="20.657146"
       id="text1918"
       inkscape:export-filename="/Users/wazenshbair/SnT/Scratch2Hook/path906.png"
       inkscape:export-xdpi="75.110001"
       inkscape:export-ydpi="75.110001"><tspan
         sodipodi:role="line"
         id="tspan1916"
         x="33.093723"
         y="20.657146"
         style="font-style:normal;font-variant:normal;font-weight:normal;font-stretch:normal;font-size:9.4722px;font-family:'DIN Alternate';-inkscape-font-specification:'DIN Alternate';fill:#ffffff;stroke-width:0.14418">BLOCKLY</tspan></text>
    <path
       sodipodi:nodetypes="ccccccc"
       inkscape:connector-curvature="0"
       id="path908-5-3"
       d="M 75.543906,26.718109 73.14604,25.363031 c -0.345658,-0.195035 -0.773425,0.05421 -0.77413,0.451132 v 5.856798 c 7.32e-4,0.396878 0.428473,0.646164 0.77413,0.451128 l 2.397866,-1.35535 c 2.955636,-1.553907 1.513891,-4.437536 0,-4.04863 z"
       style="fill:#ffcc00;fill-opacity:1;stroke-width:0.14418"
       inkscape:export-filename="/Users/wazenshbair/SnT/Scratch2Hook/path906.png"
       inkscape:export-xdpi="75.110001"
       inkscape:export-ydpi="75.110001" />
    <text
       xml:space="preserve"
       style="font-size:11.1436px;line-height:1.25;font-family:sans-serif;word-spacing:0px;stroke-width:0.208953"
       x="76.949806"
       y="26.960043"
       id="text2486"
       inkscape:export-filename="/Users/wazenshbair/SnT/Scratch2Hook/path906.png"
       inkscape:export-xdpi="75.110001"
       inkscape:export-ydpi="75.110001"><tspan
         sodipodi:role="line"
         id="tspan2484"
         style="font-style:normal;font-variant:normal;font-weight:normal;font-stretch:normal;font-size:11.1436px;font-family:Krungthep;-inkscape-font-specification:Krungthep;stroke-width:0.208953"
         x="76.949806"
         y="26.960043">2</tspan></text>
  </g>
</svg>
